<svg
    version="1.1"
    xmlns="http://www.w3.org/2000/svg"
    xmlns:xlink="http://www.w3.org/1999/xlink"
    x="0px"
    y="0px"
    viewBox="150 150 1000 600"
    style="enable-background:new 0 0 2200 1466;"
    xml:space="preserve"
>
    <path
        style="fill:#fcd303; filter:drop-shadow(0px 0px 40px #faffb3);"
        d="M378.957,533.181c6.487,22.654,12.965,45.311,19.431,67.971c1.066,3.737,5.218,6.33,9.057,5.143
        c66.94-20.699,135.639-35.923,205.147-44.862c68.684-8.834,138.125-11.795,207.308-8.703c36.586,1.635,73.095,4.974,109.368,10.026
        c-7.338,28.386-13.831,56.987-19.172,85.817c-61.759-7.505-124.059-10.291-186.243-8.245
        c-64.128,2.111-128.111,9.293-191.139,21.297c-33.582,6.396-66.876,14.225-99.817,23.357c-4.234-18.938-8.399-37.893-12.302-56.901
        c-1.905-9.276-16.102-5.35-14.2,3.915c4.399,21.421,9.124,42.776,13.913,64.113c0.867,3.861,5.37,6.189,9.057,5.142
        c61.656-17.492,124.648-30.382,188.285-38.056c63.22-7.623,127.034-10.323,190.67-7.985c36.025,1.324,71.975,4.287,107.738,8.812
        c2.924,0.37,6.585-2.533,7.1-5.405c6.031-33.638,13.667-66.962,22.399-99.997c0.922-3.487-1.16-8.477-5.142-9.057
        c-69.71-10.164-140.194-14.345-210.615-12.183c-70.363,2.161-140.569,10.493-209.518,24.675
        c-36.999,7.61-73.62,16.973-109.768,27.925c-22.188-77.728-44.526-155.413-66.777-233.122
        c-5.226-18.252-10.442-36.506-15.655-54.762c51.4,17.288,99.898,42.538,143.89,74.283c13.94,10.059,27.354,20.806,40.307,32.106
        c3.345,2.918,9.295,3.01,11.564-1.49c32.906-65.269,70.285-128.27,112.084-188.241c9.402-13.49,19.04-26.813,28.879-39.987
        c33.546,66.947,67.092,133.895,100.638,200.842c1.77,3.531,6.83,4.582,10.074,2.641C842,342.484,912.914,310.33,986.921,287.356
        c15.616-4.848,31.357-9.277,47.201-13.307c-28.999,60.097-53.395,122.502-74.402,185.792c-6.868,20.692-13.33,41.516-19.39,62.459
        c-2.639,9.121,11.566,13.015,14.2,3.915c20.478-70.776,45.382-140.447,75.251-207.816c7.693-17.353,15.745-34.545,24.212-51.534
        c2.868-5.755-1.85-12.348-8.315-10.816c-75.828,17.967-149.339,45.349-218.71,80.826c-17.662,9.032-35.039,18.606-52.137,28.662
        c-34.132-68.117-68.264-136.233-102.396-204.35c-2.74-5.468-9.664-4.017-12.715,0c-44.026,57.957-83.833,119.077-119.153,182.714
        c-8.748,15.761-17.197,31.686-25.398,47.738c-44.443-37.482-94.172-68.219-147.905-90.57
        c-15.746-6.549-31.803-12.311-48.102-17.325c-5.378-1.654-10.567,3.766-9.057,9.057
        C332.973,372.952,356.013,453.053,378.957,533.181z"
    />
</svg>
